<?xml version="1.0" encoding="utf-8"?>
<!-- Generator: Adobe Illustrator 17.0.0, SVG Export Plug-In . SVG Version: 6.00 Build 0)  -->
<!DOCTYPE svg PUBLIC "-//W3C//DTD SVG 1.1//EN" "http://www.w3.org/Graphics/SVG/1.1/DTD/svg11.dtd">
<svg version="1.1" xmlns="http://www.w3.org/2000/svg" xmlns:xlink="http://www.w3.org/1999/xlink" x="0px" y="0px" width="300px"
	 height="300px" viewBox="0 0 300 300" enable-background="new 0 0 300 300" xml:space="preserve">
<g id="Layer_1">
	<g>
		<g>
			<circle fill="#414141" cx="239.436" cy="142.335" r="5.108"/>
			<circle fill="#414141" cx="55.533" cy="142.335" r="5.108"/>
			<circle fill="#414141" cx="70.858" cy="157.66" r="5.108"/>
			<circle fill="#414141" cx="101.508" cy="157.66" r="5.108"/>
			<circle fill="#414141" cx="86.183" cy="172.985" r="5.108"/>
			<circle fill="#414141" cx="116.834" cy="172.985" r="5.108"/>
			<circle fill="#414141" cx="132.159" cy="188.311" r="5.108"/>
			<circle fill="#414141" cx="162.809" cy="188.311" r="5.108"/>
			<circle fill="#414141" cx="178.135" cy="172.985" r="5.108"/>
			<circle fill="#414141" cx="147.484" cy="203.636" r="5.108"/>
			<circle fill="#414141" cx="193.46" cy="157.66" r="5.108"/>
			<circle fill="#414141" cx="224.11" cy="157.66" r="5.108"/>
			<circle fill="#414141" cx="208.785" cy="172.985" r="5.108"/>
			<path fill="#414141" d="M242.184,177.174l47.988-27.417l-49.327-28.009l49.327-28.183L149.814,13.858L9.449,93.565l49.327,28.183
				L9.449,149.757l49.327,28.183L9.449,205.95l140.364,80.192l140.364-80.192l-49.327-28.009l0.363-0.209
				C241.571,177.598,241.867,177.384,242.184,177.174z M149.814,25.602L269.534,93.59l-39.013,22.293l0,0l-80.703,46.109
				L30.093,93.59L149.814,25.602z M66.301,129.222c0.828,1.701,2.539,2.896,4.557,2.896c1.379,0,2.616-0.557,3.535-1.446l11.555,6.6
				c-2.707,0.128-4.873,2.324-4.873,5.062c0,2.82,2.289,5.108,5.108,5.108s5.108-2.289,5.108-5.108c0-0.884-0.281-1.67-0.674-2.396
				l52.77,30.15c-0.593,0.833-1.011,1.798-1.011,2.896c0,2.82,2.289,5.108,5.108,5.108s5.108-2.289,5.108-5.108
				c0-0.261-0.107-0.48-0.148-0.731l51.35-29.338c0.301,2.534,2.375,4.521,4.991,4.521c2.82,0,5.108-2.289,5.108-5.108
				c0-1.66-0.843-3.07-2.074-4l11.249-6.426c0.347,0.077,0.674,0.209,1.042,0.209c2.268,0,4.122-1.502,4.792-3.545l1.635-0.935
				l38.998,22.145l-10.13,5.788c-0.802-1.773-2.57-3.019-4.638-3.019c-2.82,0-5.108,2.289-5.108,5.108
				c0,1.103,0.424,2.069,1.017,2.902l-20.153,11.514l0,0l-32.633,18.646c0.398-0.725,0.685-1.522,0.685-2.411
				c0-2.82-2.289-5.108-5.108-5.108s-5.108,2.289-5.108,5.108c0,2.743,2.176,4.94,4.889,5.062l-11.56,6.605
				c-0.92-0.889-2.161-1.451-3.545-1.451c-2.82,0-5.108,2.289-5.108,5.108c0,0.409,0.143,0.771,0.235,1.155l-23.448,13.394
				l-28.183-16.102c-0.664-2.048-2.524-3.555-4.797-3.555c-0.373,0-0.705,0.138-1.052,0.215l-11.244-6.421
				c1.231-0.935,2.079-2.34,2.079-4.005c0-2.82-2.289-5.108-5.108-5.108c-2.616,0-4.695,1.997-4.991,4.531l-51.36-29.338
				c0.036-0.25,0.148-0.475,0.148-0.736c0-2.82-2.289-5.108-5.108-5.108c-1.221,0-2.294,0.485-3.172,1.2l-6.942-3.964
				L66.301,129.222z M269.529,205.976l-119.721,68.402L30.093,205.976l38.993-22.145l80.728,46.119l80.723-46.119L269.529,205.976z"
				/>
		</g>
		<g>
		</g>
		<g>
		</g>
		<g>
		</g>
		<g>
		</g>
		<g>
		</g>
		<g>
		</g>
		<g>
		</g>
		<g>
		</g>
		<g>
		</g>
		<g>
		</g>
		<g>
		</g>
		<g>
		</g>
		<g>
		</g>
		<g>
		</g>
		<g>
		</g>
	</g>
</g>
<g id="Layer_2">
	<polygon fill="#FFFFFF" stroke="#414141" stroke-width="10" stroke-miterlimit="10" points="149.812,130.536 13.488,208.56 
		149.812,286.583 286.179,208.375 	"/>
	<polygon fill="#FFFFFF" stroke="#414141" stroke-width="10" stroke-miterlimit="10" points="149.812,71.767 13.488,149.791 
		149.812,227.814 286.179,149.606 	"/>
	<line fill="none" stroke="#414141" stroke-width="7" stroke-miterlimit="10" x1="149.812" y1="71.767" x2="150" y2="226.25"/>
	<line fill="none" stroke="#414141" stroke-width="7" stroke-miterlimit="10" x1="175.5" y1="86" x2="175.5" y2="213"/>
	<line fill="none" stroke="#414141" stroke-width="7" stroke-miterlimit="10" x1="202.5" y1="103" x2="202.5" y2="197"/>
	<line fill="none" stroke="#414141" stroke-width="7" stroke-miterlimit="10" x1="228.5" y1="115" x2="228.5" y2="184"/>
	<line fill="none" stroke="#414141" stroke-width="7" stroke-miterlimit="10" x1="252.5" y1="131" x2="252.5" y2="168"/>
	<line fill="none" stroke="#414141" stroke-width="7" stroke-miterlimit="10" x1="121.5" y1="86" x2="121.5" y2="213"/>
	<line fill="none" stroke="#414141" stroke-width="7" stroke-miterlimit="10" x1="94.5" y1="103" x2="94.5" y2="197"/>
	<line fill="none" stroke="#414141" stroke-width="7" stroke-miterlimit="10" x1="68.5" y1="117" x2="68.5" y2="184"/>
	<line fill="none" stroke="#414141" stroke-width="7" stroke-miterlimit="10" x1="44.5" y1="131" x2="44.5" y2="168"/>
	<polygon fill="#FFFFFF" stroke="#414141" stroke-width="10" stroke-miterlimit="10" points="149.812,13.652 13.488,91.675 
		149.812,169.699 286.179,91.491 	"/>
</g>
</svg>
