<?xml version="1.0" encoding="utf-8"?>
<!-- Generator: Adobe Illustrator 17.0.0, SVG Export Plug-In . SVG Version: 6.00 Build 0)  -->
<!DOCTYPE svg PUBLIC "-//W3C//DTD SVG 1.1//EN" "http://www.w3.org/Graphics/SVG/1.1/DTD/svg11.dtd">
<svg version="1.1" xmlns="http://www.w3.org/2000/svg" xmlns:xlink="http://www.w3.org/1999/xlink" x="0px" y="0px" width="300px"
	 height="300px" viewBox="0 0 300 300" enable-background="new 0 0 300 300" xml:space="preserve">
<g id="Layer_2" display="none">
	<g display="inline">
		<g>
			<path fill="none" stroke="#414141" stroke-width="12" stroke-miterlimit="10" d="M81.655,300c-1.1,0-1.55-0.874-1-1.826
				l53.576-92.843c0.55-0.953,1.45-0.976,2-0.024l53.576,92.878c0.55,0.953,0.1,1.814-1,1.814H81.655z"/>
		</g>
	</g>
</g>
<g id="Layer_1">
	<circle fill="#FFFFFF" stroke="#414141" stroke-width="12" stroke-miterlimit="10" cx="87.206" cy="68.096" r="40.593"/>
	<g>
		<g>
			<path fill="#FFFFFF" d="M265.29,112.009L223,136.423v-15.089c0-6.51-2.064-9.334-8.944-9.334H61.453
				C54.573,112,46,114.824,46,121.334v76.621C46,204.466,54.573,212,61.453,212h152.603c6.88,0,8.944-7.534,8.944-14.045v-10.902
				l42.287,24.416c0.953,0.55,1.732,0.1,1.732-1l0.003-97.46C267.022,111.909,266.243,111.459,265.29,112.009z"/>
		</g>
		<g>
			<path fill="none" stroke="#414141" stroke-width="12" stroke-miterlimit="10" d="M265.29,112.009L223,136.423v-15.089
				c0-6.51-2.064-9.334-8.944-9.334H61.453C54.573,112,46,114.824,46,121.334v76.621C46,204.466,54.573,212,61.453,212h152.603
				c6.88,0,8.944-7.534,8.944-14.045v-10.902l42.287,24.416c0.953,0.55,1.732,0.1,1.732-1l0.003-97.46
				C267.022,111.909,266.243,111.459,265.29,112.009z"/>
		</g>
	</g>
	<circle fill="#FFFFFF" stroke="#414141" stroke-width="12" stroke-miterlimit="10" cx="179.438" cy="58.353" r="51.455"/>
	<circle fill="#FFFFFF" stroke="#414141" stroke-width="10" stroke-miterlimit="10" cx="179.438" cy="58.353" r="29.73"/>
	<circle fill="#FFFFFF" stroke="#414141" stroke-width="10" stroke-miterlimit="10" cx="87.549" cy="68.439" r="21.272"/>
	<circle fill="#FFFFFF" stroke="#414141" stroke-width="12" stroke-miterlimit="10" cx="182.106" cy="150.079" r="2.668"/>
	<circle fill="#FFFFFF" stroke="#414141" stroke-width="12" stroke-miterlimit="10" cx="182.106" cy="171.887" r="2.668"/>
	<path fill="#FFFFFF" stroke="#414141" stroke-width="12" stroke-miterlimit="10" d="M143,174.345c0,2.414-0.965,5.655-3.516,5.655
		H82.901C80.35,180,78,176.759,78,174.345v-28.41c0-2.414,2.35-2.935,4.901-2.935h56.583c2.551,0,3.516,0.521,3.516,2.935V174.345z"
		/>
	<polygon fill="#414141" points="133.875,217 120.875,217 72,300 86,300 	"/>
	<polygon fill="#414141" points="131,217 144,217 192.875,300 178.875,300 	"/>
</g>
</svg>
