<?xml version="1.0" encoding="utf-8"?>
<!-- Generator: Adobe Illustrator 17.0.0, SVG Export Plug-In . SVG Version: 6.00 Build 0)  -->
<!DOCTYPE svg PUBLIC "-//W3C//DTD SVG 1.1//EN" "http://www.w3.org/Graphics/SVG/1.1/DTD/svg11.dtd">
<svg version="1.1" xmlns="http://www.w3.org/2000/svg" xmlns:xlink="http://www.w3.org/1999/xlink" x="0px" y="0px" width="300px"
	 height="300px" viewBox="0 0 300 300" enable-background="new 0 0 300 300" xml:space="preserve">
<g id="Layer_1" display="none">
	<g display="inline">
		<g>
			<g>
				<path fill="#414141" d="M229.49,18.436H70.51c-11.547,0.014-20.905,9.371-20.918,20.918v112.959
					c0.014,11.547,9.371,20.905,20.918,20.918h57.208l-5.974,20.918h-13.58v8.367h83.673v-8.367h-13.58l-5.974-20.918h57.208
					c11.547-0.014,20.905-9.371,20.918-20.918V39.354C250.395,27.807,241.037,18.449,229.49,18.436z M130.446,194.15l5.974-20.918
					h27.16l5.974,20.918H130.446z M242.041,152.313c0,6.932-5.619,12.551-12.551,12.551H70.51c-6.932,0-12.551-5.619-12.551-12.551
					v-8.367h184.082V152.313z M242.041,135.579H57.959V39.354c0-6.932,5.619-12.551,12.551-12.551h158.98
					c6.932,0,12.551,5.619,12.551,12.551V135.579z"/>
			</g>
		</g>
		<g>
			<g>
				<path fill="#414141" d="M183.469,210.885H66.327c-2.31,0-4.184,1.873-4.184,4.184v50.204c0,2.31,1.873,4.184,4.184,4.184
					h117.143c2.31,0,4.184-1.873,4.184-4.184v-50.204C187.653,212.758,185.78,210.885,183.469,210.885z M179.286,261.089H70.51
					v-41.837h108.775V261.089z"/>
			</g>
		</g>
		<g>
			<g>
				<rect x="78.878" y="244.354" fill="#414141" width="8.367" height="8.367"/>
			</g>
		</g>
		<g>
			<g>
				<rect x="78.878" y="227.619" fill="#414141" width="8.367" height="8.367"/>
			</g>
		</g>
		<g>
			<g>
				<rect x="95.612" y="227.619" fill="#414141" width="8.367" height="8.367"/>
			</g>
		</g>
		<g>
			<g>
				<rect x="112.347" y="227.619" fill="#414141" width="8.367" height="8.367"/>
			</g>
		</g>
		<g>
			<g>
				<rect x="145.816" y="227.619" fill="#414141" width="8.367" height="8.367"/>
			</g>
		</g>
		<g>
			<g>
				<rect x="129.082" y="227.619" fill="#414141" width="8.367" height="8.367"/>
			</g>
		</g>
		<g>
			<g>
				<rect x="162.551" y="244.354" fill="#414141" width="8.367" height="8.367"/>
			</g>
		</g>
		<g>
			<g>
				<rect x="162.551" y="227.619" fill="#414141" width="8.367" height="8.367"/>
			</g>
		</g>
		<g>
			<g>
				<rect x="95.612" y="244.354" fill="#414141" width="58.571" height="8.367"/>
			</g>
		</g>
		<g>
			<g>
				<path fill="#414141" d="M216.939,210.885c-11.553,0-20.918,9.366-20.918,20.918v16.735c0,11.553,9.366,20.918,20.918,20.918
					s20.918-9.366,20.918-20.918v-16.735C237.857,220.25,228.491,210.885,216.939,210.885z M229.49,248.538
					c0,6.932-5.619,12.551-12.551,12.551s-12.551-5.619-12.551-12.551v-16.735c0-6.932,5.619-12.551,12.551-12.551
					s12.551,5.619,12.551,12.551V248.538z"/>
			</g>
		</g>
		<g>
			<g>
				<rect x="212.755" y="227.619" fill="#414141" width="8.367" height="8.367"/>
			</g>
		</g>
		<g>
			<g>
				
					<rect x="119.528" y="81.264" transform="matrix(-0.2751 0.9614 -0.9614 -0.2751 273.3784 -35.2328)" fill="#414141" width="60.887" height="8.364"/>
			</g>
		</g>
		<g>
			<g>
				<path fill="#414141" d="M127.576,67.669l-5.355-6.426L97.118,82.161c-1.774,1.48-2.013,4.118-0.533,5.893
					c0.162,0.193,0.34,0.372,0.533,0.533l25.102,20.918l5.355-6.426l-21.245-17.705L127.576,67.669z"/>
			</g>
		</g>
		<g>
			<g>
				<path fill="#414141" d="M203.415,82.695c-0.162-0.193-0.34-0.372-0.533-0.533L177.78,61.243l-5.355,6.426l21.245,17.705
					l-21.245,17.705l5.355,6.426l25.102-20.918C204.656,87.108,204.895,84.47,203.415,82.695z"/>
			</g>
		</g>
		<g>
		</g>
		<g>
		</g>
		<g>
		</g>
		<g>
		</g>
		<g>
		</g>
		<g>
		</g>
		<g>
		</g>
		<g>
		</g>
		<g>
		</g>
		<g>
		</g>
		<g>
		</g>
		<g>
		</g>
		<g>
		</g>
		<g>
		</g>
		<g>
		</g>
	</g>
</g>
<g id="Layer_2">
	<path fill="none" stroke="#414141" stroke-width="11" stroke-miterlimit="10" d="M292.5,147.045
		c0,7.305-6.843,14.455-16.716,14.455H26.995c-9.873,0-19.495-7.15-19.495-14.455V20.283C7.5,12.977,17.122,7.5,26.995,7.5h248.789
		c9.873,0,16.716,5.477,16.716,12.783V147.045z"/>
	<line fill="none" stroke="#414141" stroke-width="9" stroke-miterlimit="10" x1="120.917" y1="199.052" x2="131.06" y2="164.582"/>
	
		<line fill="none" stroke="#414141" stroke-width="9" stroke-miterlimit="10" x1="181.564" y1="200.255" x2="171.421" y2="165.784"/>
	<line fill="none" stroke="#414141" stroke-width="10" stroke-miterlimit="10" x1="100" y1="201" x2="202" y2="201"/>
	<line fill="none" stroke="#414141" stroke-width="9" stroke-miterlimit="10" x1="140.583" y1="118.426" x2="161.212" y2="48.175"/>
	<polyline fill="none" stroke="#414141" stroke-width="9" stroke-miterlimit="10" points="120.524,108.889 91.128,83.264 
		120.524,58.012 	"/>
	<polyline fill="none" stroke="#414141" stroke-width="9" stroke-miterlimit="10" points="181.313,108.889 210.71,83.264 
		181.313,58.012 	"/>
	<g>
		<path fill="none" stroke="#414141" stroke-width="10" stroke-miterlimit="10" d="M191,290c0,0.552-0.448,1-1,1H51
			c-0.552,0-1-0.448-1-1v-58c0-0.552,0.448-1,1-1h139c0.552,0,1,0.448,1,1V290z"/>
	</g>
	<rect x="64.5" y="246.5" fill="#414141" stroke="#414141" stroke-miterlimit="10" width="10" height="10"/>
	<rect x="64.5" y="267.5" fill="#414141" stroke="#414141" stroke-miterlimit="10" width="10" height="9"/>
	<rect x="85.5" y="246.5" fill="#414141" stroke="#414141" stroke-miterlimit="10" width="10" height="10"/>
	<rect x="105.5" y="246.5" fill="#414141" stroke="#414141" stroke-miterlimit="10" width="10" height="10"/>
	<rect x="125.5" y="246.5" fill="#414141" stroke="#414141" stroke-miterlimit="10" width="9" height="10"/>
	<rect x="145.5" y="246.5" fill="#414141" stroke="#414141" stroke-miterlimit="10" width="10" height="10"/>
	<rect x="166.5" y="246.5" fill="#414141" stroke="#414141" stroke-miterlimit="10" width="9" height="10"/>
	<rect x="226.5" y="246.5" fill="#414141" stroke="#414141" stroke-miterlimit="10" width="10" height="10"/>
	<rect x="166.5" y="267.5" fill="#414141" stroke="#414141" stroke-miterlimit="10" width="9" height="9"/>
	<rect x="85.5" y="267.5" fill="#414141" stroke="#414141" stroke-miterlimit="10" width="70" height="9"/>
	<path fill="none" stroke="#414141" stroke-width="9" stroke-miterlimit="10" d="M251.5,276.412c0,8.301-7.152,15.088-15.985,15.088
		h-7.996c-8.833,0-16.018-6.787-16.018-15.088V246.35c0-8.301,7.186-14.85,16.018-14.85h7.996c8.833,0,15.985,6.548,15.985,14.85
		V276.412z"/>
</g>
</svg>
